<svg width="1200" height="820" viewBox="0 0 1200 820" fill="none" xmlns="http://www.w3.org/2000/svg">
  <rect width="1200" height="820" rx="40" fill="url(#bg)"/>
  <g opacity="0.6" filter="url(#blur)">
    <circle cx="210" cy="140" r="140" fill="#2563EB"/>
    <circle cx="1000" cy="180" r="160" fill="#4F46E5"/>
    <circle cx="920" cy="660" r="160" fill="#14B8A6"/>
  </g>
  <rect x="70" y="70" width="1060" height="680" rx="34" fill="rgba(15,23,42,0.7)" stroke="rgba(255,255,255,0.08)"/>
  <rect x="108" y="108" width="250" height="604" rx="26" fill="#0F172A" stroke="rgba(255,255,255,0.05)"/>
  <rect x="390" y="108" width="702" height="100" rx="24" fill="#111C34" stroke="rgba(255,255,255,0.06)"/>
  <rect x="420" y="140" width="182" height="16" rx="8" fill="#DDE8FF" fill-opacity="0.16"/>
  <rect x="928" y="136" width="124" height="42" rx="16" fill="url(#pill)"/>
  <rect x="390" y="236" width="462" height="256" rx="28" fill="#0E172A" stroke="rgba(255,255,255,0.05)"/>
  <rect x="878" y="236" width="214" height="256" rx="28" fill="#0E172A" stroke="rgba(255,255,255,0.05)"/>
  <rect x="390" y="518" width="330" height="194" rx="28" fill="#0E172A" stroke="rgba(255,255,255,0.05)"/>
  <rect x="746" y="518" width="346" height="194" rx="28" fill="#0E172A" stroke="rgba(255,255,255,0.05)"/>

  <rect x="132" y="138" width="198" height="56" rx="18" fill="url(#brand)"/>
  <text x="164" y="174" fill="white" font-family="Inter, Arial, sans-serif" font-size="24" font-weight="700">Docuro AI</text>
  <text x="136" y="248" fill="#CBD5E1" font-family="Inter, Arial, sans-serif" font-size="18">Dashboard</text>
  <text x="136" y="300" fill="#94A3B8" font-family="Inter, Arial, sans-serif" font-size="18">Invoices</text>
  <text x="136" y="352" fill="#94A3B8" font-family="Inter, Arial, sans-serif" font-size="18">GST Center</text>
  <text x="136" y="404" fill="#94A3B8" font-family="Inter, Arial, sans-serif" font-size="18">Tally Export</text>
  <text x="136" y="456" fill="#94A3B8" font-family="Inter, Arial, sans-serif" font-size="18">Clients</text>
  <text x="136" y="508" fill="#94A3B8" font-family="Inter, Arial, sans-serif" font-size="18">Settings</text>

  <text x="420" y="280" fill="white" font-family="Inter, Arial, sans-serif" font-size="28" font-weight="700">AI Invoice Extraction Pipeline</text>
  <rect x="420" y="312" width="164" height="132" rx="24" fill="#111C34"/>
  <rect x="442" y="334" width="120" height="86" rx="18" fill="#F8FAFC"/>
  <rect x="458" y="348" width="86" height="10" rx="5" fill="#CBD5E1"/>
  <rect x="458" y="370" width="68" height="10" rx="5" fill="#CBD5E1"/>
  <rect x="458" y="392" width="56" height="10" rx="5" fill="#CBD5E1"/>
  <rect x="592" y="348" width="96" height="60" rx="20" fill="url(#ocr)"/>
  <text x="614" y="386" fill="white" font-family="Inter, Arial, sans-serif" font-size="20" font-weight="700">OCR</text>
  <path d="M584 378H602" stroke="#7DD3FC" stroke-width="6" stroke-linecap="round"/>
  <path d="M694 378H724" stroke="#7DD3FC" stroke-width="6" stroke-linecap="round"/>
  <rect x="734" y="328" width="92" height="96" rx="20" fill="#131F39"/>
  <rect x="752" y="348" width="56" height="10" rx="5" fill="#E2E8F0" fill-opacity="0.3"/>
  <rect x="752" y="372" width="40" height="10" rx="5" fill="#22C55E"/>
  <rect x="752" y="396" width="50" height="10" rx="5" fill="#38BDF8"/>
  <circle cx="948" cy="336" r="30" fill="url(#pill)"/>
  <text x="933" y="345" fill="white" font-family="Inter, Arial, sans-serif" font-size="18" font-weight="700">GST</text>
  <rect x="904" y="386" width="162" height="28" rx="14" fill="#111C34"/>
  <text x="926" y="405" fill="#C7D2FE" font-family="Inter, Arial, sans-serif" font-size="16">Auto-classified</text>
  <rect x="904" y="430" width="162" height="28" rx="14" fill="#111C34"/>
  <text x="924" y="449" fill="#A7F3D0" font-family="Inter, Arial, sans-serif" font-size="16">Tally ready</text>

  <text x="420" y="558" fill="white" font-family="Inter, Arial, sans-serif" font-size="26" font-weight="700">GST Intelligence</text>
  <path d="M430 650C470 620 500 682 544 646C588 610 608 572 648 592C676 606 692 632 710 614" stroke="url(#line1)" stroke-width="8" stroke-linecap="round"/>
  <rect x="430" y="604" width="78" height="28" rx="14" fill="#1D4ED8"/>
  <text x="448" y="623" fill="white" font-family="Inter, Arial, sans-serif" font-size="14" font-weight="700">CGST</text>
  <rect x="518" y="604" width="78" height="28" rx="14" fill="#4F46E5"/>
  <text x="536" y="623" fill="white" font-family="Inter, Arial, sans-serif" font-size="14" font-weight="700">SGST</text>
  <rect x="606" y="604" width="78" height="28" rx="14" fill="#0EA5E9"/>
  <text x="626" y="623" fill="white" font-family="Inter, Arial, sans-serif" font-size="14" font-weight="700">IGST</text>

  <text x="770" y="558" fill="white" font-family="Inter, Arial, sans-serif" font-size="26" font-weight="700">Client Command Center</text>
  <rect x="772" y="590" width="292" height="34" rx="17" fill="#111C34"/>
  <circle cx="796" cy="607" r="10" fill="#22C55E"/>
  <text x="820" y="614" fill="#E2E8F0" font-family="Inter, Arial, sans-serif" font-size="16">Apex Traders</text>
  <text x="972" y="614" fill="#A7F3D0" font-family="Inter, Arial, sans-serif" font-size="16">Synced</text>
  <rect x="772" y="636" width="292" height="34" rx="17" fill="#111C34"/>
  <circle cx="796" cy="653" r="10" fill="#F59E0B"/>
  <text x="820" y="660" fill="#E2E8F0" font-family="Inter, Arial, sans-serif" font-size="16">NorthGrid Foods</text>
  <text x="954" y="660" fill="#FDE68A" font-family="Inter, Arial, sans-serif" font-size="16">Review</text>
  <rect x="772" y="682" width="292" height="34" rx="17" fill="#111C34"/>
  <circle cx="796" cy="699" r="10" fill="#38BDF8"/>
  <text x="820" y="706" fill="#E2E8F0" font-family="Inter, Arial, sans-serif" font-size="16">Urban Agency LLP</text>
  <text x="958" y="706" fill="#BFDBFE" font-family="Inter, Arial, sans-serif" font-size="16">Export</text>

  <defs>
    <linearGradient id="bg" x1="90" y1="30" x2="1110" y2="790" gradientUnits="userSpaceOnUse">
      <stop stop-color="#0B1220"/>
      <stop offset="0.55" stop-color="#0F172A"/>
      <stop offset="1" stop-color="#111B34"/>
    </linearGradient>
    <linearGradient id="brand" x1="132" y1="138" x2="330" y2="194" gradientUnits="userSpaceOnUse">
      <stop stop-color="#2563EB"/>
      <stop offset="1" stop-color="#4F46E5"/>
    </linearGradient>
    <linearGradient id="pill" x1="928" y1="136" x2="1052" y2="178" gradientUnits="userSpaceOnUse">
      <stop stop-color="#2563EB"/>
      <stop offset="1" stop-color="#7C3AED"/>
    </linearGradient>
    <linearGradient id="ocr" x1="592" y1="348" x2="688" y2="408" gradientUnits="userSpaceOnUse">
      <stop stop-color="#06B6D4"/>
      <stop offset="1" stop-color="#2563EB"/>
    </linearGradient>
    <linearGradient id="line1" x1="430" y1="614" x2="710" y2="614" gradientUnits="userSpaceOnUse">
      <stop stop-color="#60A5FA"/>
      <stop offset="1" stop-color="#A78BFA"/>
    </linearGradient>
    <filter id="blur" x="-50" y="-120" width="1360" height="1020" filterUnits="userSpaceOnUse" color-interpolation-filters="sRGB">
      <feGaussianBlur stdDeviation="80"/>
    </filter>
  </defs>
</svg>
